<svg width="25" height="117.99999999999999" xmlns="http://www.w3.org/2000/svg">

 <g>
  <title>background</title>
  <rect fill="none" id="canvas_background" height="402" width="582" y="-1" x="-1"/>
 </g>
 <g>
  <title>Layer 1</title>
  <path transform="rotate(-179.63682556152344 13.245284080505371,59.00000000000001) " stroke="null" id="svg_1" d="m24.979622,116l-7.652829,0c-4.48966,0 -4.591697,-4.5 -4.591697,-5l0,-33c0,-0.3 0,-8.4 -3.265207,-12.6c-2.24483,-2.9 -4.897811,-5.2 -6.326339,-6.4c1.428528,-1.2 4.081509,-3.5 6.326339,-6.4c3.265207,-4.2 3.265207,-12.3 3.265207,-12.6l0,-33c0,-0.5 0.102038,-5 4.591697,-5l7.652829,0c0.612226,0 1.020377,-0.4 1.020377,-1s-0.408151,-1 -1.020377,-1l-7.652829,0c-4.591697,0 -6.632452,3.6 -6.632452,7l0,33c0,0.1 0,7.7 -2.857056,11.4c-2.959094,3.8 -6.938565,6.8 -6.938565,6.8l-0.102038,0.1c0,0 -0.102038,0 -0.102038,0.1c0,0 0,0 0,0.1s-0.102038,0.1 -0.102038,0.2c0,0.1 0,0.1 -0.102038,0.2c0,0.1 0,0.1 0,0.2c0,0.1 0,0.1 0,0.2c0,0.1 0,0.1 0.102038,0.2c0,0.1 0,0.1 0.102038,0.2c0,0 0,0 0,0.1c0,0 0.102038,0 0.102038,0.1l0.102038,0.1c0,0 3.979471,3 6.938565,6.8c2.857056,3.5 2.857056,11.1 2.857056,11.2l0,33c0,3.4 2.040754,7 6.632452,7l7.652829,0c0.612226,0 1.020377,-0.4 1.020377,-1s-0.408151,-1 -1.020377,-1z"/>
 </g>
</svg>